# xmcd
#
# Track frame offsets:
#  150
#  19429
#  34323
#  54536
#  68436
#  81091
#  101585
#  114640
#  132504
#  146742
#  165990
#  189971
#  207391
#  224778
#  239898
#
# Disc length: 3383 seconds
#
# Revision: 0
# Processed by: cddbd v1.5.2PL0 Copyright (c) Steve Scherf et al.
# Submitted via: Collectorz.com Music Collector 6.9
#
DISCID=e60d350f
DTITLE=Sjoerd (Vlieland) - Nog Meer Van
DYEAR=2003
DGENRE=Acoustic Pop
TTITLE0=Nog Meer Van
TTITLE1=Inside My Head
TTITLE2=Door Zonder Jou
TTITLE3=Overcome
TTITLE4=The Letter
TTITLE5=Helpless
TTITLE6=Richard Cory
TTITLE7=Angels
TTITLE8=Beest Op De Weg
TTITLE9=Is Dit Nou Later
TTITLE10=From Hank To Hendrix
TTITLE11=Wild Wood
TTITLE12=Laat Me Maar Op Vlieland Zijn
TTITLE13=Supergirl (Live In De Bolder, Vlieland)
TTITLE14=Wild Rover (Live In De Bolder, Vlieland)
EXTD=
EXTT0=
EXTT1=
EXTT2=
EXTT3=
EXTT4=
EXTT5=
EXTT6=
EXTT7=
EXTT8=
EXTT9=
EXTT10=
EXTT11=
EXTT12=
EXTT13=
EXTT14=
PLAYORDER=
